<svg xmlns="http://www.w3.org/2000/svg" version="1.1" viewBox="-5.0 -10.0 110.0 135.0" 
              fill="#003296">
    <path
        d="m85.262 58.316c1.2148 0.33984 2.3828 0.82422 3.4805 1.4453l0.92578-0.47266 2.6328-1.3398 2.0938 2.0938 2.0859 2.0898-1.3398 2.6328-0.46875 0.92578v-0.007812c0.61719 1.0977 1.1016 2.2656 1.4375 3.4805l0.98828 0.31641 2.8125 0.91797v5.918l-2.8125 0.91406-0.98828 0.31641v-0.003906c-0.33594 1.2148-0.82031 2.3867-1.4414 3.4805l0.47266 0.92578 1.3398 2.6328-2.0859 2.0938-2.0938 2.0898-2.6328-1.3398-0.92578-0.47266v-0.003906c-1.0938 0.625-2.2617 1.1133-3.4805 1.4492l-0.31641 0.98437-0.91406 2.8125h-5.9141l-0.91406-2.8125-0.32422-0.98437h0.003906c-1.2148-0.33594-2.3789-0.82031-3.4766-1.4414l-0.92969 0.47266-2.6328 1.3398-2.0859-2.0898-2.0938-2.0938 1.3477-2.6328 0.46875-0.92578v0.003906c-0.62109-1.0938-1.1055-2.2656-1.4453-3.4805l-0.98047-0.31641-2.8281-0.91797v-5.9141l2.8203-0.91797 0.98047-0.31641-0.003906-0.003907c0.33984-1.2148 0.82812-2.3828 1.4492-3.4805l-0.46875-0.92578-1.3477-2.6328 2.0938-2.0898 2.0859-2.0938 2.6328 1.3398 0.92969 0.47266 0.003906 0.007813c1.0938-0.62109 2.2617-1.1055 3.4727-1.4453l0.32422-0.98438 0.91406-2.8125h5.9141l0.91406 2.8125zm-71.141-8.0938h0.003906c-0.019531 0.66016-0.5625 1.1875-1.2266 1.1875-0.66016 0-1.2031-0.52734-1.2227-1.1875v-12.949c-0.007812-0.98047 0.24609-1.9492 0.73828-2.8008v-0.007812c0.49609-0.84375 1.207-1.543 2.0586-2.0273l8.5508-4.9414-1.2266-0.28906v-0.003906c-0.65234-0.15234-1.0586-0.80859-0.90234-1.4609 0.15234-0.65625 0.80859-1.0586 1.4609-0.90625l4.1367 0.98437v0.003907c0.34375 0.058593 0.64453 0.26172 0.82812 0.55859 0.18359 0.29688 0.22656 0.66016 0.125 0.99219l-0.98828 4.1289v0.003906c-0.15625 0.65234-0.8125 1.0547-1.4648 0.89844-0.65625-0.15625-1.0586-0.8125-0.90234-1.4648l0.34766-1.4492-8.7461 5.0508c-0.48438 0.27344-0.88672 0.66797-1.1602 1.1484l-0.003906-0.007812c-0.26953 0.48438-0.40625 1.0312-0.39844 1.5859zm25.918 42.41c0.11328 0.66016-0.33203 1.293-0.99609 1.4062-0.66406 0.11328-1.293-0.33203-1.4062-0.99609l-0.73828-4.2539 0.003906-0.003906c-0.058594-0.32031 0.015625-0.64844 0.20312-0.91406s0.47266-0.44922 0.79297-0.50391l4.2539-0.73828 0.003906 0.003906c0.66406-0.11328 1.2969 0.33203 1.4102 0.99609 0.11328 0.66406-0.33594 1.2969-1 1.4102l-0.9375 0.16016 3.6406 2.0977c0.023438 0.011719 0.046875 0.023437 0.0625 0.042969 0.97266 0.57812 2.1797 0.57812 3.1484 0l11.082-6.3906c0.58203-0.32812 1.3164-0.12891 1.6523 0.45312 0.33203 0.57812 0.13672 1.3164-0.4375 1.6562l-11.074 6.3906c-1.7227 1.0273-3.8672 1.0273-5.5898 0-0.023437-0.011719-0.039062-0.023438-0.0625-0.035157l-4.3008-2.4883zm42.969-46.164c0.22266-0.23828 0.53125-0.37891 0.85547-0.39062 0.32422-0.007813 0.64062 0.11328 0.87891 0.33594 0.23437 0.22266 0.37109 0.53125 0.37891 0.85938 0.007812 0.32422-0.11719 0.64062-0.34375 0.87109l-2.9102 3.0781c-0.22656 0.26953-0.55859 0.43359-0.91406 0.44141-0.35156 0.011719-0.69531-0.13281-0.93359-0.39062l-3.0703-2.918c-0.46875-0.46484-0.48047-1.2188-0.023438-1.6992 0.45312-0.48047 1.207-0.50781 1.6992-0.066406l1.0781 1.0195v-10.336c0.007813-0.55469-0.13281-1.0977-0.40625-1.5781-0.26562-0.46484-0.64844-0.85156-1.1133-1.1211-0.015625-0.011719-0.035156-0.019531-0.054688-0.027344l-11.316-6.5391c-0.58203-0.33594-0.77734-1.082-0.44141-1.6641 0.33594-0.58203 1.082-0.77734 1.6641-0.44141l11.312 6.5312 0.074219 0.039062v0.003906c1.7031 0.98828 2.7422 2.8242 2.7188 4.7969v10.105zm-77.906 15.262c-0.67187 0-1.2188-0.54688-1.2188-1.2227 0-0.67187 0.54688-1.2188 1.2188-1.2188h14.297c0.67578 0 1.2227 0.54688 1.2227 1.2188 0 0.67578-0.54688 1.2227-1.2227 1.2227zm0 5.6953v-0.003906c-0.33203 0.011719-0.65234-0.11328-0.88672-0.34375-0.23828-0.23047-0.37109-0.54688-0.37109-0.87891s0.13281-0.64844 0.37109-0.87891c0.23438-0.23047 0.55469-0.35547 0.88672-0.34375h14.297c0.66406 0.019532 1.1875 0.5625 1.1875 1.2227 0 0.66406-0.52344 1.2031-1.1875 1.2227zm0 5.6836v-0.003906c-0.67187 0-1.2188-0.54297-1.2188-1.2188s0.54688-1.2227 1.2188-1.2227h14.297c0.67578 0 1.2227 0.54688 1.2227 1.2227s-0.54688 1.2188-1.2227 1.2188zm0 5.6953v-0.003907c-0.33203 0.011719-0.65234-0.11328-0.88672-0.34375-0.23828-0.23047-0.37109-0.54688-0.37109-0.87891s0.13281-0.64844 0.37109-0.87891c0.23438-0.23047 0.55469-0.35547 0.88672-0.34375h6.582c0.66406 0.019531 1.1875 0.55859 1.1875 1.2227 0 0.66016-0.52344 1.2031-1.1875 1.2227zm0 5.6953v-0.003906c-0.33203 0.007812-0.65234-0.11719-0.88672-0.34766-0.23828-0.23047-0.37109-0.54688-0.37109-0.87891 0-0.32812 0.13281-0.64453 0.37109-0.875 0.23438-0.23047 0.55469-0.35547 0.88672-0.34766h6.582c0.66406 0.019531 1.1875 0.5625 1.1875 1.2227 0 0.66406-0.52344 1.207-1.1875 1.2266zm26.078-6.9102-14.223-0.003906v13.391h14.223zm-6.7734-2.4414v-19.43h-24.32v32.344h14.422v-11.695c0-0.67188 0.54688-1.2188 1.2227-1.2188zm-5.2773 9.8867c-0.5-0.44922-0.54297-1.2227-0.09375-1.7266 0.44922-0.5 1.2188-0.54297 1.7227-0.09375l2.4062 2.1406 4.4141-4.6758c0.46094-0.48828 1.2305-0.51172 1.7227-0.054688 0.48828 0.46094 0.51172 1.2305 0.054688 1.7227l-5.1875 5.5-0.019531 0.015625h0.003906c-0.21484 0.24219-0.51562 0.39062-0.83984 0.41406-0.32422 0.019531-0.64453-0.09375-0.88281-0.30859zm27.781-79.254c5.457 0 10.605 2.5391 13.93 6.8711 3.3203 4.3281 4.4414 9.9609 3.0273 15.234-1.4102 5.2695-5.1953 9.5859-10.238 11.676-5.043 2.0898-10.77 1.7148-15.5-1.0117-4.7266-2.7305-7.918-7.5039-8.6328-12.914-0.71094-5.4141 1.1328-10.848 4.9922-14.711 3.2891-3.2969 7.7617-5.1484 12.422-5.1445zm0 9.3867c3.5977 0 6.5156 2.918 6.5156 6.5156 0 3.6016-2.918 6.5195-6.5156 6.5195 4.3594-0.007813 8.543 1.7344 11.605 4.8359 2.4727-2.957 3.7188-6.75 3.4883-10.594-0.23047-3.8477-1.9219-7.4609-4.7266-10.105-2.8047-2.6406-6.5117-4.1133-10.367-4.1133-3.8555 0-7.5625 1.4727-10.367 4.1133-2.8047 2.6445-4.4961 6.2578-4.7266 10.105-0.23047 3.8438 1.0156 7.6367 3.4883 10.594 3.0625-3.1016 7.2422-4.8438 11.605-4.8359-3.6016 0-6.5195-2.918-6.5195-6.5195 0-3.5977 2.918-6.5156 6.5195-6.5156zm34.16 50.074c3.2812 0 6.2383 1.9766 7.4922 5.0078 1.2578 3.0312 0.5625 6.5234-1.7578 8.8438-2.3203 2.3203-5.8086 3.0117-8.8398 1.7578-3.0312-1.2578-5.0078-4.2148-5.0078-7.4961 0-2.1523 0.85547-4.2148 2.375-5.7344 1.5234-1.5234 3.5859-2.3789 5.7383-2.3789z"
        fill-rule="evenodd" />
   
</svg>