<svg xmlns="http://www.w3.org/2000/svg" version="1.1" viewBox="-5.0 -10.0 110.0 135.0" 
    fill="#003296">
    <path
        d="m56.336 45.898c-5.2812 0.015624-10.348-2.082-14.07-5.8281-7.7578-7.7578-7.7578-20.383 0-28.141 3.7305-3.7305 8.793-5.8281 14.07-5.8281 5.2773 0 10.34 2.0977 14.07 5.8281 7.7578 7.7578 7.7578 20.383 0 28.141-3.7227 3.7461-8.7891 5.8438-14.07 5.8281zm0-37c-4.5352-0.011719-8.8906 1.793-12.09 5.0078-6.668 6.668-6.668 17.516 0 24.184v0.003906c3.207 3.207 7.5547 5.0078 12.09 5.0078 4.5352 0 8.8867-1.8008 12.094-5.0078 6.668-6.668 6.668-17.516 0-24.184v-0.003906c-3.1992-3.2148-7.5547-5.0195-12.094-5.0078zm13.082 30.184" />
    <path
        d="m66.277 17.457c-0.56641 0-1.0742-0.33984-1.293-0.86328-0.21484-0.52344-0.097656-1.125 0.30469-1.5273l3.1406-3.1406v0.003907c0.55078-0.51953 1.4141-0.50781 1.9492 0.027343 0.53516 0.53516 0.54688 1.3984 0.027344 1.9492l-3.1406 3.1406h0.003906c-0.26172 0.26172-0.62109 0.41016-0.99219 0.41016z" />
    <path
        d="m59.977 13.82c-0.12109 0-0.24609-0.015624-0.36328-0.050781-0.74609-0.19922-1.1875-0.96484-0.98828-1.7109l1.1484-4.2891c0.078124-0.37891 0.30859-0.70703 0.63672-0.90625 0.32812-0.20312 0.72266-0.26172 1.0977-0.16016 0.37109 0.10156 0.68359 0.34766 0.86719 0.6875 0.18359 0.33594 0.21875 0.73828 0.097656 1.1016l-1.1484 4.2891c-0.16406 0.60938-0.71484 1.0352-1.3477 1.0391z" />
    <path
        d="m52.699 13.82c-0.63281 0-1.1875-0.42578-1.3516-1.0391l-1.1484-4.2891c-0.12109-0.36328-0.085938-0.76563 0.097656-1.1016 0.18359-0.33984 0.5-0.58594 0.87109-0.6875 0.37109-0.10156 0.76562-0.042969 1.0938 0.16016 0.32812 0.19922 0.55859 0.52734 0.63672 0.90625l1.1484 4.2891h0.003906c0.19922 0.74609-0.24609 1.5117-0.99219 1.7109-0.11719 0.03125-0.23828 0.050781-0.35938 0.050781z" />
    <path
        d="m46.398 17.457c-0.37109 0-0.72656-0.14844-0.98828-0.41016l-3.1406-3.1406c-0.27344-0.25781-0.43359-0.61719-0.4375-0.99609-0.007812-0.37891 0.14062-0.74219 0.41016-1.0117 0.26562-0.26563 0.63281-0.41406 1.0078-0.41016 0.37891 0.007813 0.74219 0.16406 1 0.44141l3.1406 3.1406v-0.003906c0.39844 0.40234 0.51953 1.0039 0.30469 1.5273-0.21875 0.52344-0.73047 0.86328-1.2969 0.86328z" />
    <path
        d="m42.758 23.762c-0.125 0-0.24609-0.015625-0.36328-0.046875l-4.2891-1.1484v-0.003906c-0.37891-0.078125-0.70312-0.30859-0.90625-0.63672s-0.25781-0.72266-0.16016-1.0938c0.10156-0.37109 0.34766-0.6875 0.6875-0.87109 0.33984-0.18359 0.73828-0.21875 1.1016-0.097657l4.2891 1.1484c0.67969 0.18359 1.1172 0.83984 1.0273 1.5352-0.09375 0.69531-0.6875 1.2188-1.3867 1.2188z" />
    <path
        d="m38.469 32.188c-0.70703 0.003906-1.3008-0.51953-1.3906-1.2148-0.09375-0.69922 0.34766-1.3555 1.0273-1.5352l4.2891-1.1484v-0.003906c0.36719-0.11719 0.76562-0.085937 1.1055 0.097656 0.33594 0.18359 0.58594 0.5 0.6875 0.87109 0.097656 0.37109 0.039062 0.76953-0.16016 1.0977-0.20312 0.32813-0.53125 0.55859-0.91016 0.63672l-4.2891 1.1523c-0.11719 0.03125-0.23828 0.046875-0.35938 0.046875z" />
    <path
        d="m43.258 40.48c-0.56641 0-1.0781-0.33984-1.293-0.86328-0.21875-0.52344-0.097656-1.125 0.30078-1.5234l3.1406-3.1406c0.54688-0.54688 1.4336-0.54688 1.9805 0s0.54688 1.4336 0 1.9805l-3.1406 3.1406v-0.003907c-0.26172 0.26563-0.61719 0.41016-0.98828 0.41016z" />
    <path
        d="m51.551 45.27c-0.125 0-0.24609-0.015625-0.36328-0.046875-0.35938-0.097656-0.66406-0.33203-0.85156-0.65234-0.18359-0.32422-0.23438-0.70312-0.14063-1.0625l1.1484-4.2891h0.003906c0.23047-0.70312 0.97266-1.1055 1.6914-0.91406 0.71484 0.19531 1.1562 0.91016 1.0078 1.6367l-1.1484 4.2891c-0.16016 0.61328-0.71484 1.0391-1.3477 1.0391z" />
    <path
        d="m61.125 45.27c-0.63281 0-1.1875-0.42578-1.3516-1.0391l-1.1484-4.2891c-0.15234-0.72656 0.28906-1.4414 1.0078-1.6367 0.71484-0.19141 1.457 0.21094 1.6914 0.91406l1.1484 4.2891c0.19922 0.74609-0.24219 1.5117-0.98828 1.7148-0.11719 0.03125-0.23828 0.046875-0.35938 0.046875z" />
    <path
        d="m69.418 40.48c-0.37109 0-0.72656-0.14453-0.98828-0.41016l-3.1406-3.1406v0.003906c-0.54687-0.54688-0.54687-1.4336 0-1.9805 0.54688-0.54688 1.4336-0.54688 1.9805 0l3.1406 3.1406h-0.003906c0.40234 0.39844 0.51953 1 0.30469 1.5234-0.21484 0.52344-0.72656 0.86328-1.293 0.86328z" />
    <path
        d="m74.207 32.188c-0.12109 0-0.24609-0.015625-0.36328-0.046875l-4.2891-1.1484c-0.375-0.078126-0.70313-0.30859-0.90625-0.63672-0.20313-0.32812-0.26172-0.72656-0.16016-1.0977 0.10156-0.37109 0.34766-0.6875 0.6875-0.87109 0.33984-0.17969 0.73828-0.21484 1.1055-0.097657l4.2891 1.1484v0.003906c0.67969 0.17969 1.1172 0.83594 1.0273 1.5352-0.089844 0.69531-0.6875 1.2188-1.3906 1.2148z" />
    <path
        d="m69.918 23.762c-0.70312 0-1.2969-0.52344-1.3867-1.2188-0.089844-0.69531 0.34766-1.3516 1.0234-1.5352l4.2891-1.1484c0.36719-0.12109 0.76562-0.085937 1.1016 0.097656 0.33984 0.18359 0.58984 0.49609 0.6875 0.87109 0.10156 0.37109 0.042969 0.76562-0.15625 1.0938-0.20312 0.32812-0.53125 0.55859-0.90625 0.63672l-4.2891 1.1562c-0.12109 0.03125-0.24219 0.046875-0.36328 0.046875z" />
    <path
        d="m56.336 27.398c-0.37109 0-0.72656-0.14453-0.98828-0.41016l-3.6641-3.6641v0.003906c-0.54688-0.54688-0.54688-1.4336 0-1.9805s1.4336-0.54688 1.9805 0l2.6719 2.6719 4.2422-4.2422c0.54688-0.54688 1.4336-0.54688 1.9805 0s0.54688 1.4336 0 1.9805l-5.2305 5.2305c-0.26562 0.26562-0.62109 0.41016-0.99219 0.41016z" />
    <path
        d="m29.316 93.898c-0.37109 0-0.72656-0.14453-0.98828-0.41016l-21.816-21.816c-0.26562-0.26172-0.41016-0.61719-0.41016-0.98828s0.14453-0.73047 0.41016-0.99219l8.3867-8.3906c0.26562-0.26172 0.62109-0.41016 0.99219-0.41016s0.72656 0.14844 0.98828 0.41016l21.82 21.816c0.26172 0.26172 0.41016 0.62109 0.41016 0.99219s-0.14844 0.72656-0.41016 0.98828l-8.3906 8.3906c-0.26172 0.26562-0.62109 0.41016-0.99219 0.41016zm-19.836-23.215 19.836 19.836 6.4102-6.4102-19.836-19.84z" />
    <path
        d="m33.953 81.75c-0.37109 0-0.73047-0.14453-0.99219-0.41016l-13.777-13.777c-0.54688-0.54688-0.54688-1.4336 0-1.9805l10.699-10.703 0.027344-0.027344c2.9141-2.7656 6.7773-4.3008 10.789-4.293h5.2227c2.6016 0 5.1641 0.64844 7.4531 1.8828 0.42188 0.23047 0.89453 0.34766 1.375 0.34766h11.641c2.6992 0 5.0469 1.8359 5.7031 4.4531l12.16-10.562c2.3125-1.9961 5.7734-1.875 7.9375 0.28125 1.0938 1.0898 1.707 2.5742 1.707 4.1172 0 1.5469-0.61328 3.0312-1.707 4.1211l-15.406 15.41c-2.9258 2.9414-6.8984 4.6016-11.051 4.6133h-24.672l-6.1172 6.1172h-0.003906c-0.26172 0.26562-0.61719 0.41016-0.98828 0.41016zm-11.801-15.18 11.801 11.801 5.5391-5.5391c0.26172-0.26172 0.61719-0.41016 0.98828-0.41016h25.254c3.4062-0.007813 6.668-1.3711 9.0664-3.7852l15.414-15.418c1.1523-1.1523 1.1836-3.0117 0.074218-4.2031-1.1133-1.1914-2.9688-1.2891-4.1992-0.22266l-14.523 12.605c-1.0664 1.9375-3.1055 3.1367-5.3164 3.1289h-12.59c-0.77344 0-1.3984-0.62891-1.3984-1.4023s0.625-1.3984 1.3984-1.3984h12.59c1.6875 0 3.1016-1.2539 3.207-2.8555 0.058594-0.88672-0.26562-1.7539-0.89453-2.3828-0.57031-0.57812-1.3555-0.90234-2.1719-0.89844h-11.645c-0.94531-0.003906-1.875-0.23828-2.707-0.6875-1.8789-1.0156-3.9844-1.5469-6.1211-1.5469h-5.2188c-3.2891-0.003907-6.4531 1.2539-8.8398 3.5117z" />
</svg>